<svg width="260.000000" height="121.000000" viewBox="0 0 260 121" fill="none" xmlns="http://www.w3.org/2000/svg" xmlns:xlink="http://www.w3.org/1999/xlink">
	<desc>
			Created with Pixso.
	</desc>
	<defs>
		<clipPath id="clip181_588">
			<rect id="Логотип" rx="-0.500000" width="259.000000" height="120.000000" transform="translate(0.500000 0.500000)" fill="white" fill-opacity="0"/>
		</clipPath>
	</defs>
	<rect id="Логотип" rx="-0.500000" width="259.000000" height="120.000000" transform="translate(0.500000 0.500000)" fill="#FFFFFF" fill-opacity="0"/>
	<g clip-path="url(#clip181_588)">
		<path id="path14" d="M222.27 72.57L228.42 61.82L228.42 24.33L228.16 24.31L93.9 24.31L93.9 24.84L227.89 24.84L227.89 61.76L221.96 71.93L217.95 61.63L207.61 61.63L215.21 79.68L203.47 100.25L0 100.17L0 100.71L203.85 100.78L215.42 80.32L220.38 92.1L229.76 92.1L222.27 72.57Z" fill="#A78464" fill-opacity="1.000000" fill-rule="nonzero"/>
		<path id="path16" d="M46.31 23.54L56.34 23.54L56.34 24.71C57.07 24.18 58.02 23.86 59.08 23.54C63.19 22.37 68.57 22.37 70.47 25.66C71.84 28.21 71.21 31.5 68.67 33.1C66.25 34.58 63.09 33.84 61.4 31.29C59.82 28.85 60.55 25.45 62.98 23.97L64.46 23.33C61.92 23.22 58.87 23.65 56.34 25.35L56.34 54.01L46.31 54.01L46.31 23.54Z" fill="#FFFFFF" fill-opacity="1.000000" fill-rule="nonzero"/>
		<path id="path18" d="M93.14 38.72C93.14 30.12 92.3 23.33 87.55 23.33C82.7 23.33 81.96 30.23 81.96 38.72C81.96 47.11 82.38 54.54 87.55 54.54C92.51 54.54 93.14 47.11 93.14 38.72ZM102.53 38.93C102.53 47.64 95.88 54.96 87.87 54.96L87.44 54.96C79.11 54.96 72.68 47.64 72.68 38.93C72.68 30.23 79.11 22.8 87.44 22.8L87.87 22.8C95.88 22.8 102.53 30.23 102.53 38.93Z" fill="#FFFFFF" fill-opacity="1.000000" fill-rule="nonzero"/>
		<path id="path20" d="M107.96 89.66C107.32 90.19 106.8 90.61 106.06 91.04C100.78 93.69 97.51 83.4 97.51 76.39C97.51 69.6 100.47 60.47 105.32 62.48L105.95 62.8C106.69 63.12 107.32 63.65 107.96 64.18L107.96 89.66ZM134.06 4.02C131.21 1.37 127.63 -0.01 123.83 -0.01C120.03 -0.01 116.55 1.48 113.81 3.92C113.18 4.34 112.65 4.87 112.12 5.4C107.38 10.39 107.8 16.76 107.8 22.07L107.8 24.3L107.8 24.62C107.72 30.26 107.88 45.01 107.96 51.51L107.96 63.65C105.95 61.95 103.74 61.1 101.31 61.1C94.35 61.1 88.87 68.22 88.87 76.92C88.87 85.63 94.35 92.74 101.31 92.74C103.74 92.74 105.95 91.78 107.96 90.3L107.96 92.1L117.55 92.1L117.5 24.62L117.5 24.3L117.5 12.94C117.5 5.62 118.35 1.37 122.04 0.63C122.56 0.52 123.3 0.42 123.83 0.42C126.68 0.42 129.63 1.26 131.95 2.96C131.63 2.86 131.21 2.86 130.79 2.86C127.84 2.86 125.52 5.3 125.52 8.16C125.52 11.14 127.84 13.58 130.79 13.58C133.64 13.58 136.06 11.14 136.06 8.16C136.06 6.47 135.22 4.98 134.06 4.02Z" fill="#FFFFFF" fill-opacity="1.000000" fill-rule="nonzero"/>
		<path id="path22" d="M142.97 76.18C142.86 68.43 141.91 61.63 137.8 61.63C133.58 61.63 132.53 68.54 132.53 76.18L142.97 76.18ZM152.04 76.71L132.53 76.71C132.53 82.65 132.74 90.93 138.22 92.1C143.29 93.16 150.04 87.22 151.41 81.59L151.83 81.59C150.35 87.43 144.97 92.95 138.22 92.95C129.89 92.95 122.93 87.11 122.93 76.92C122.93 68.11 129.89 60.89 137.7 60.89C144.97 60.89 151.3 68.11 152.04 76.28L152.04 76.71Z" fill="#FFFFFF" fill-opacity="1.000000" fill-rule="nonzero"/>
		<path id="path24" d="M250.92 75.43C250.81 67.69 249.86 60.89 245.75 60.89C241.53 60.89 240.48 67.79 240.48 75.43L250.92 75.43ZM259.99 75.97L240.48 75.97C240.48 81.91 240.69 90.19 246.17 91.36C251.24 92.42 257.99 86.48 259.36 80.85L259.78 80.85C258.3 86.69 252.92 92.21 246.17 92.21C237.84 92.21 230.88 86.37 230.88 76.18C230.88 67.37 237.84 60.15 245.65 60.15C252.92 60.15 259.25 67.37 259.99 75.54L259.99 75.97Z" fill="#FFFFFF" fill-opacity="1.000000" fill-rule="nonzero"/>
		<path id="path26" d="M157.31 33.72L166.91 33.72L166.91 92.1L157.31 92.1L157.31 33.72Z" fill="#FFFFFF" fill-opacity="1.000000" fill-rule="nonzero"/>
		<path id="path28" d="M24.59 53.16L23.85 52.84C23.22 52.42 22.59 51.99 21.85 51.35L21.85 25.88C22.59 25.45 23.11 24.92 23.75 24.6C29.02 21.95 32.29 32.25 32.29 39.25C32.29 46.05 29.44 55.18 24.59 53.16ZM28.6 22.8C26.07 22.8 23.85 23.75 21.85 25.35L21.85 23.54L12.25 23.54L12.25 24.25L12.25 73.33L12.25 82.64L21.85 82.64L21.85 73.33L21.85 73.33L21.85 51.99C23.85 53.48 26.07 54.54 28.6 54.54C35.45 54.54 41.04 47.32 41.04 38.62C41.04 30.02 35.45 22.8 28.6 22.8Z" fill="#FFFFFF" fill-opacity="1.000000" fill-rule="nonzero"/>
		<path id="path30" d="M193.17 61.63L202.87 61.63L202.87 92.1L193.17 92.1L193.17 91.15C190.74 92.63 187.58 93.59 183.78 92.74C183.25 92.63 182.83 92.63 182.3 92.42C178.51 90.83 173.65 87.54 173.65 80.53L173.65 61.63L183.25 61.63L183.25 88.17C183.25 90.61 183.99 92.42 187.15 92.42C189.47 92.31 191.48 91.68 193.17 90.72L193.17 61.63Z" fill="#FFFFFF" fill-opacity="1.000000" fill-rule="nonzero"/>
		<mask id="mask181_602" mask-type="alpha" maskUnits="userSpaceOnUse" x="148.447876" y="1.440186" width="72.561279" height="51.781143">
			<path id="path36" d="M176.86 27.98C186.57 33.53 196.28 39.08 205.99 44.63C210.99 47.49 216 50.35 221 53.22C218.64 39.55 216.27 25.88 213.9 12.21C213.28 8.62 212.66 5.03 212.04 1.44C204.82 2.6 197.61 3.77 190.4 4.94C176.42 7.21 162.43 9.47 148.44 11.74C150.41 12.87 152.39 13.99 154.36 15.12C161.86 19.41 169.36 23.69 176.86 27.98Z" fill="#000000" fill-opacity="1.000000" fill-rule="nonzero"/>
		</mask>
		<g mask="url(#mask181_602)">
			<mask id="mask181_606" mask-type="alpha" maskUnits="userSpaceOnUse" x="148.447876" y="1.440186" width="72.561279" height="51.781143">
				<path id="path42" d="M176.86 27.98C186.57 33.53 196.28 39.08 205.99 44.63C210.99 47.49 216 50.35 221 53.22C218.64 39.55 216.27 25.88 213.9 12.21C213.28 8.62 212.66 5.03 212.04 1.44C204.82 2.6 197.61 3.77 190.4 4.94C176.42 7.21 162.43 9.47 148.44 11.74C150.41 12.87 152.39 13.99 154.36 15.12C161.86 19.41 169.36 23.69 176.86 27.98Z" fill="#000000" fill-opacity="1.000000" fill-rule="nonzero"/>
			</mask>
			<g mask="url(#mask181_606)">
				<path id="path48" d="M176.86 27.98C186.57 33.53 196.28 39.09 205.98 44.63C201.87 34.16 197.76 23.68 193.65 13.21C180.55 13.84 167.45 14.48 154.36 15.12C161.86 19.41 169.35 23.7 176.86 27.98Z" fill="#A88464" fill-opacity="1.000000" fill-rule="nonzero"/>
				<path id="path50" d="M205.98 44.63C210.99 47.49 216 50.36 221 53.22C218.64 39.55 216.27 25.88 213.9 12.22C207.15 12.55 200.4 12.87 193.65 13.21C197.76 23.68 201.87 34.16 205.98 44.63Z" fill="#A88464" fill-opacity="1.000000" fill-rule="nonzero"/>
				<path id="path52" d="M154.36 15.12C167.45 14.48 180.55 13.84 193.65 13.21C192.56 10.45 191.48 7.7 190.4 4.94C176.42 7.21 162.43 9.48 148.45 11.74C150.42 12.87 152.39 13.99 154.36 15.12Z" fill="#A88464" fill-opacity="1.000000" fill-rule="nonzero"/>
				<path id="path54" d="M193.65 13.21C200.4 12.87 207.15 12.55 213.9 12.22C213.28 8.62 212.66 5.03 212.04 1.44C204.82 2.6 197.61 3.77 190.4 4.94C191.48 7.7 192.56 10.45 193.65 13.21Z" fill="#A88464" fill-opacity="1.000000" fill-rule="nonzero"/>
			</g>
		</g>
		<mask id="mask181_616" mask-type="alpha" maskUnits="userSpaceOnUse" x="33.252441" y="58.880890" width="68.660034" height="62.119110">
			<path id="path60" d="M33.25 58.88C37.45 73.05 41.66 87.21 45.86 101.38C47.8 107.92 49.74 114.46 51.68 121C58.76 118.97 65.84 116.94 72.91 114.91C82.58 112.15 92.24 109.38 101.91 106.61C97.51 103.55 93.12 100.5 88.72 97.44C79.19 90.82 69.66 84.19 60.13 77.57C54.96 73.97 49.79 70.37 44.61 66.78C40.82 64.14 37.04 61.51 33.25 58.88Z" fill="#000000" fill-opacity="1.000000" fill-rule="nonzero"/>
		</mask>
		<g mask="url(#mask181_616)">
			<mask id="mask181_620" mask-type="alpha" maskUnits="userSpaceOnUse" x="33.252441" y="58.880890" width="68.660034" height="62.119110">
				<path id="path66" d="M33.25 58.88C37.45 73.05 41.66 87.21 45.86 101.38C47.8 107.92 49.74 114.46 51.68 121C58.76 118.97 65.84 116.94 72.91 114.91C82.58 112.15 92.24 109.38 101.91 106.61C97.51 103.55 93.12 100.5 88.72 97.44C79.19 90.82 69.66 84.19 60.13 77.57C54.96 73.97 49.79 70.37 44.61 66.78C40.82 64.14 37.04 61.51 33.25 58.88Z" fill="#000000" fill-opacity="1.000000" fill-rule="nonzero"/>
			</mask>
			<g mask="url(#mask181_620)">
				<path id="path72" d="M33.25 58.88C37.46 73.04 41.66 87.21 45.86 101.38C51.91 100.83 57.94 100.27 63.98 99.72C57.52 88.74 51.07 77.76 44.62 66.78C40.83 64.14 37.04 61.51 33.25 58.88Z" fill="#A88464" fill-opacity="1.000000" fill-rule="nonzero"/>
				<path id="path74" d="M45.86 101.38C47.8 107.92 49.74 114.46 51.68 121C58.76 118.97 65.84 116.94 72.92 114.91C69.94 109.85 66.96 104.78 63.98 99.72C57.94 100.27 51.91 100.83 45.86 101.38Z" fill="#A88464" fill-opacity="1.000000" fill-rule="nonzero"/>
				<path id="path76" d="M44.62 66.78C51.07 77.76 57.52 88.74 63.98 99.72C72.23 98.96 80.47 98.2 88.72 97.44C79.19 90.82 69.66 84.19 60.13 77.57C54.96 73.97 49.79 70.37 44.62 66.78Z" fill="#A88464" fill-opacity="1.000000" fill-rule="nonzero"/>
				<path id="path78" d="M63.98 99.72C66.96 104.78 69.94 109.85 72.92 114.91C82.58 112.15 92.24 109.38 101.91 106.61C97.51 103.55 93.12 100.5 88.72 97.44C80.47 98.2 72.23 98.96 63.98 99.72Z" fill="#A88464" fill-opacity="1.000000" fill-rule="nonzero"/>
			</g>
		</g>
		<path id="path80" d="M207.61 61.63L217.83 61.63L229.76 92.21L220.23 92.21L207.61 61.63Z" fill="#FFFFFF" fill-opacity="1.000000" fill-rule="nonzero"/>
	</g>
</svg>
