<svg width="36.000244" height="36.000977" viewBox="0 0 36.0002 36.001" fill="none" xmlns="http://www.w3.org/2000/svg" xmlns:xlink="http://www.w3.org/1999/xlink">
	<desc>
			Created with Pixso.
	</desc>
	<defs/>
	<path id="Vector" d="M18 36L36 36L36 18L36 0L18 0L0 0L0 18L0 36L17.99 36L18 36ZM13.17 25.43C12.93 26.45 12.9 27.56 12.94 28.49C13.46 28.74 14.2 28.98 14.51 29.07C15.02 28.27 15.57 27.24 15.86 26.21C16.02 25.62 16.8 22.55 16.8 22.55C17.26 23.44 18.62 24.21 20.06 24.21C24.35 24.21 27.27 20.31 27.27 15.09C27.27 11.14 23.91 7.46 18.81 7.46C12.46 7.46 9.27 12 9.27 15.78C9.27 18.07 10.13 20.11 12 20.87C12.31 20.99 12.58 20.87 12.67 20.53C12.7 20.42 12.75 20.23 12.8 20.03C12.85 19.81 12.91 19.59 12.94 19.46C13.03 19.13 13 19.01 12.75 18.72C12.21 18.09 11.87 17.27 11.87 16.11C11.87 12.75 14.39 9.74 18.44 9.74C22.03 9.74 24 11.92 24 14.84C24 18.68 22.3 21.92 19.77 21.92C18.37 21.92 17.32 20.76 17.66 19.35C17.8 18.74 18 18.11 18.19 17.5C18.52 16.42 18.84 15.4 18.84 14.63C18.84 13.54 18.25 12.63 17.04 12.63C15.61 12.63 14.46 14.1 14.46 16.08C14.46 17.33 14.89 18.18 14.89 18.18C14.89 18.18 13.43 24.35 13.17 25.43Z" fill="#AB9273" fill-opacity="1.000000" fill-rule="evenodd"/>
</svg>
