<svg width="36.000000" height="36.000000" viewBox="0 0 36 36" fill="none" xmlns="http://www.w3.org/2000/svg" xmlns:xlink="http://www.w3.org/1999/xlink">
	<desc>
			Created with Pixso.
	</desc>
	<defs/>
	<path id="Vector" d="M18 0L0 0L0 18L0 36L18 36L36 36L36 18L36 0L18 0ZM24.31 25.18C24.91 21.99 26.08 15.08 26.35 12.24C26.37 11.98 26.33 11.66 26.35 11.55C26.33 11.41 26.28 11.21 26.1 11.07C25.88 10.89 25.54 10.85 25.39 10.85C24.71 10.85 23.68 11.21 18.68 13.3C16.93 14.02 13.44 15.53 8.18 17.82C7.34 18.16 6.89 18.48 6.85 18.81C6.78 19.44 7.66 19.63 8.8 19.99C9.71 20.3 10.94 20.64 11.59 20.66C12.16 20.68 12.81 20.43 13.53 19.94C18.45 16.63 20.97 14.95 21.13 14.92C21.25 14.9 21.4 14.86 21.51 14.95C21.55 15 21.57 15.05 21.59 15.1C21.61 15.16 21.61 15.22 21.6 15.28C21.51 15.66 16.9 19.85 16.63 20.12C15.6 21.16 14.45 21.81 16.23 22.98C17.76 23.99 18.66 24.64 20.25 25.68C21.25 26.35 22.05 27.12 23.09 27.03C23.56 26.98 24.06 26.53 24.31 25.18Z" fill="#AB9273" fill-opacity="1.000000" fill-rule="evenodd"/>
</svg>
