<svg width="36.000000" height="36.000000" viewBox="0 0 36 36" fill="none" xmlns="http://www.w3.org/2000/svg" xmlns:xlink="http://www.w3.org/1999/xlink">
	<desc>
			Created with Pixso.
	</desc>
	<defs/>
	<path id="Vector" d="M23.53 0L12.48 0L0 0L0 12.46L0 23.51L0 36L12.46 36L23.51 36L36 36L36 23.53L36 12.48L36 0L23.53 0ZM26.43 25.68L29.06 25.68C29.81 25.68 30.18 25.31 29.96 24.58C29.39 23.44 28.65 22.4 27.75 21.5C27.13 20.77 26.21 20 25.95 19.61C25.55 19.1 25.66 18.88 25.95 18.45C27.33 16.56 28.52 14.53 29.47 12.39C29.64 11.83 29.47 11.43 28.68 11.43L26.06 11.43C25.81 11.42 25.57 11.48 25.36 11.61C25.15 11.75 25 11.95 24.91 12.18C24.11 14.12 23.02 15.92 21.69 17.54C21.07 18.16 20.81 18.35 20.47 18.35C20.3 18.35 20.06 18.16 20.06 17.6L20.06 12.39C20.06 11.71 19.87 11.43 19.31 11.43L15.18 11.43C15.01 11.43 14.85 11.48 14.72 11.6C14.6 11.71 14.52 11.87 14.51 12.03C14.51 12.67 15.44 12.82 15.56 14.58L15.56 18.45C15.56 19.29 15.41 19.44 15.07 19.44C14.19 19.44 12.01 16.18 10.74 12.43C10.47 11.73 10.23 11.43 9.56 11.43L6.93 11.43C6.18 11.43 6.03 11.79 6.03 12.18C6.72 15.37 8.14 18.34 10.18 20.88C11.03 22.26 12.21 23.41 13.6 24.25C14.99 25.08 16.56 25.57 18.18 25.68C19.85 25.68 20.06 25.31 20.06 24.67L20.06 22.31C20.06 21.56 20.21 21.41 20.75 21.41C21.14 21.41 21.8 21.6 23.36 23.09C25.14 24.88 25.44 25.68 26.43 25.68Z" fill="#AB9273" fill-opacity="1.000000" fill-rule="evenodd"/>
</svg>
